# xmcd CD database file
#
# Track frame offsets:
#	150
#	14739
#	28675
#	56116
#	97797
#	109140
#	152534
#	185805
#	217428
#	241187
#	255110
#
# Disc length: 3934 seconds
#
# Revision: 0
# Processed by: cddbd v1.5.2PL0 Copyright (c) Steve Scherf et al.
# Submitted via: CDex 1.70beta2
#
DISCID=930f5c0b
DTITLE=Jane Bunnett - Spirits of Havana
DYEAR=2002
DGENRE=Jazz
TTITLE0=Hymn
TTITLE1=Ochum
TTITLE2=Yo Siempre Oddara
TTITLE3=Song From Argentina
TTITLE4=Quirino
TTITLE5=La Luna Arriba
TTITLE6=G.M.S.
TTITLE7=Epistrophy
TTITLE8=Yemaya (Asesu)
TTITLE9=Sweet Dreams
TTITLE10=Spirits of Havana
EXTD=YEAR: 2002
EXTT0=
EXTT1=
EXTT2=
EXTT3=
EXTT4=
EXTT5=
EXTT6=
EXTT7=
EXTT8=
EXTT9=
EXTT10=
PLAYORDER=
